<svg xmlns="http://www.w3.org/2000/svg" width="24" height="24"><g fill="none" fill-rule="evenodd"><path d="M0 0h24v24H0z"/><path fill="#D1264A" d="M21.72 20.314l-3.709-3.68a9.006 9.006 0 00-1.013-12.336 8.991 8.991 0 00-12.364.338 9.007 9.007 0 00-.338 12.373 8.99 8.99 0 0012.326 1.015l3.678 3.68a.997.997 0 001.42 0 1.001 1.001 0 000-1.39zm-10.704-2.29a6.999 6.999 0 01-6.996-7.002c0-3.866 3.132-7 6.996-7a6.998 6.998 0 016.995 7 7.004 7.004 0 01-2.049 4.951 6.991 6.991 0 01-4.946 2.05z"/></g></svg>